<svg width="16" height="16" viewBox="0 0 16 16" fill="none" xmlns="http://www.w3.org/2000/svg">
<path d="M2.81479 14.6666C2.40739 14.6666 2.0585 14.5217 1.76813 14.2318C1.47825 13.9415 1.33331 13.5926 1.33331 13.1852V2.81479C1.33331 2.40739 1.47825 2.0585 1.76813 1.76813C2.0585 1.47825 2.40739 1.33331 2.81479 1.33331H13.1852C13.5926 1.33331 13.9415 1.47825 14.2318 1.76813C14.5217 2.0585 14.6666 2.40739 14.6666 2.81479V13.1852C14.6666 13.5926 14.5217 13.9415 14.2318 14.2318C13.9415 14.5217 13.5926 14.6666 13.1852 14.6666H2.81479ZM6.96294 10.7963C7.06171 10.7963 7.1543 10.781 7.24072 10.7503C7.32714 10.7192 7.40739 10.6666 7.48146 10.5926L11.6852 6.38887C11.821 6.25307 11.8889 6.0864 11.8889 5.88887C11.8889 5.69134 11.8148 5.5185 11.6666 5.37035C11.5308 5.23455 11.358 5.16665 11.1481 5.16665C10.9383 5.16665 10.7654 5.23455 10.6296 5.37035L6.96294 9.03702L5.35183 7.42591C5.21603 7.2901 5.04936 7.2222 4.85183 7.2222C4.6543 7.2222 4.48146 7.29628 4.33331 7.44442C4.19751 7.58023 4.12961 7.75307 4.12961 7.96294C4.12961 8.17282 4.19751 8.34566 4.33331 8.48146L6.44442 10.5926C6.5185 10.6666 6.59875 10.7192 6.68516 10.7503C6.77158 10.781 6.86418 10.7963 6.96294 10.7963Z" fill="#029664"/>
</svg>
